<svg width="19" height="19" viewBox="0 0 19 19" fill="none" xmlns="http://www.w3.org/2000/svg">
<path d="M14.8438 2.52345H12.085C11.7652 2.15095 11.3686 1.85198 10.9224 1.64702C10.4762 1.44205 9.991 1.33594 9.5 1.33594C9.009 1.33594 8.5238 1.44205 8.07762 1.64702C7.63145 1.85198 7.23484 2.15095 6.91496 2.52345H4.15625C3.88067 2.52345 3.61638 2.63292 3.42152 2.82778C3.22666 3.02264 3.11719 3.28693 3.11719 3.56251V16.0313C3.11719 16.3068 3.22666 16.5711 3.42152 16.766C3.61638 16.9609 3.88067 17.0703 4.15625 17.0703H14.8438C15.1193 17.0703 15.3836 16.9609 15.5785 16.766C15.7733 16.5711 15.8828 16.3068 15.8828 16.0313V3.56251C15.8828 3.28693 15.7733 3.02264 15.5785 2.82778C15.3836 2.63292 15.1193 2.52345 14.8438 2.52345ZM9.5 2.22657C10.1693 2.22657 10.8111 2.49243 11.2843 2.96567C11.7576 3.43891 12.0234 4.08075 12.0234 4.75001V4.89845H6.97656V4.75001C6.97656 4.08075 7.24242 3.43891 7.71566 2.96567C8.1889 2.49243 8.83074 2.22657 9.5 2.22657ZM14.9922 16.0313C14.9922 16.0706 14.9765 16.1084 14.9487 16.1362C14.9209 16.1641 14.8831 16.1797 14.8438 16.1797H4.15625C4.11688 16.1797 4.07913 16.1641 4.05129 16.1362C4.02345 16.1084 4.00781 16.0706 4.00781 16.0313V3.56251C4.00781 3.52314 4.02345 3.48539 4.05129 3.45755C4.07913 3.42971 4.11688 3.41407 4.15625 3.41407H6.35832C6.17817 3.8364 6.08551 4.29087 6.08594 4.75001V5.34376C6.08594 5.46187 6.13285 5.57513 6.21637 5.65864C6.29988 5.74216 6.41315 5.78907 6.53125 5.78907H12.4688C12.5869 5.78907 12.7001 5.74216 12.7836 5.65864C12.8671 5.57513 12.9141 5.46187 12.9141 5.34376V4.75001C12.9145 4.29087 12.8218 3.8364 12.6417 3.41407H14.8438C14.8831 3.41407 14.9209 3.42971 14.9487 3.45755C14.9765 3.48539 14.9922 3.52314 14.9922 3.56251V16.0313Z" fill="black"/>
</svg>
