<svg xmlns="http://www.w3.org/2000/svg" width="8" height="5" viewBox="0 0 8 5" fill="none">
    <path d="M0.709362 4.08436L3.83436 0.959362C3.87831 0.915471 3.93788 0.890818 3.99999 0.890818C4.0621 0.890818 4.12167 0.915471 4.16561 0.959362L7.29061 4.08436C7.33201 4.12879 7.35455 4.18756 7.35348 4.24827C7.35241 4.30899 7.32781 4.36693 7.28487 4.40987C7.24193 4.45281 7.18399 4.47741 7.12328 4.47848C7.06256 4.47955 7.00379 4.45701 6.95936 4.41561L3.99999 1.45663L1.04061 4.41561C0.996182 4.45701 0.937418 4.47955 0.876698 4.47848C0.815979 4.47741 0.758047 4.45281 0.715105 4.40987C0.672163 4.36693 0.647566 4.30899 0.646495 4.24827C0.645423 4.18756 0.667962 4.12879 0.709362 4.08436Z" fill="black" stroke="black"/>
</svg>