<svg width="19" height="19" viewBox="0 0 19 19" fill="none" xmlns="http://www.w3.org/2000/svg">
<path d="M10.8307 1.09609C10.7209 1.00506 10.5909 0.941729 10.4515 0.911434C10.3121 0.881138 10.1675 0.884764 10.0298 0.922005C9.8921 0.959246 9.76536 1.02901 9.66025 1.12544C9.55514 1.22186 9.47473 1.34212 9.42578 1.47609L7.9466 5.52918L6.48523 4.11086C6.39493 4.02317 6.28705 3.95561 6.16873 3.91265C6.05041 3.86969 5.92432 3.8523 5.79879 3.86163C5.67326 3.87096 5.55113 3.90679 5.44045 3.96677C5.32978 4.02674 5.23308 4.10949 5.15672 4.20957C3.50832 6.36934 2.67188 8.54914 2.67188 10.6874C2.67188 12.4983 3.39126 14.2351 4.67179 15.5156C5.95231 16.7961 7.68907 17.5155 9.5 17.5155C11.3109 17.5155 13.0477 16.7961 14.3282 15.5156C15.6087 14.2351 16.3281 12.4983 16.3281 10.6874C16.3281 6.14891 12.4836 2.46766 10.8307 1.09609ZM9.5 15.7343C8.16191 15.7329 6.87901 15.2007 5.93284 14.2545C4.98666 13.3084 4.4545 12.0255 4.45312 10.6874C4.45312 9.20746 4.97266 7.67262 5.9902 6.11254L7.69203 7.76391C7.79865 7.86736 7.92946 7.94251 8.07254 7.98249C8.21563 8.02248 8.36644 8.02603 8.51125 7.99284C8.65606 7.95964 8.79026 7.89075 8.90164 7.79243C9.01302 7.69411 9.09804 7.56949 9.14894 7.42992L10.6489 3.3182C12.275 4.86938 14.5469 7.59172 14.5469 10.6874C14.5455 12.0255 14.0133 13.3084 13.0672 14.2545C12.121 15.2007 10.8381 15.7329 9.5 15.7343Z" fill="black"/>
</svg>
