<svg xmlns="http://www.w3.org/2000/svg" width="10" height="10" viewBox="0 0 10 10" fill="none">
    <path d="M8.29064 3.91564L5.16564 7.04064C5.12169 7.08453 5.06212 7.10918 5.00001 7.10918C4.9379 7.10918 4.87833 7.08453 4.83439 7.04064L1.70939 3.91564C1.66799 3.87121 1.64545 3.81244 1.64652 3.75173C1.64759 3.69101 1.67219 3.63307 1.71513 3.59013C1.75807 3.54719 1.81601 3.52259 1.87672 3.52152C1.93744 3.52045 1.99621 3.54299 2.04064 3.58439L5.00001 6.54337L7.95939 3.58439C8.00382 3.54299 8.06258 3.52045 8.1233 3.52152C8.18402 3.52259 8.24195 3.54719 8.28489 3.59013C8.32784 3.63307 8.35243 3.69101 8.35351 3.75173C8.35458 3.81244 8.33204 3.87121 8.29064 3.91564Z" fill="black" stroke="black"/>
</svg>