<svg xmlns="http://www.w3.org/2000/svg" width="25" height="25" viewBox="0 0 25 25" fill="none">
    <path d="M22.0615 7.30381L17.6973 2.93955C17.5703 2.81258 17.4196 2.71186 17.2537 2.64315C17.0878 2.57443 16.91 2.53906 16.7305 2.53906C16.5509 2.53906 16.3731 2.57443 16.2072 2.64315C16.0414 2.71186 15.8906 2.81258 15.7637 2.93955L3.72071 14.9815C3.59349 15.1083 3.49262 15.259 3.42391 15.4249C3.35519 15.5909 3.31998 15.7687 3.32031 15.9483V20.3126C3.32031 20.6752 3.46436 21.0229 3.72075 21.2793C3.97715 21.5357 4.3249 21.6798 4.6875 21.6798H9.05176C9.23135 21.6801 9.40924 21.6449 9.57517 21.5762C9.74109 21.5075 9.89178 21.4066 10.0186 21.2794L18.4326 12.8653L18.8828 14.6642L15.2109 18.336C15.1558 18.3903 15.112 18.455 15.082 18.5263C15.052 18.5976 15.0365 18.6741 15.0362 18.7514C15.0359 18.8288 15.051 18.9054 15.0805 18.9769C15.11 19.0484 15.1533 19.1134 15.2081 19.168C15.2628 19.2227 15.3278 19.266 15.3993 19.2954C15.4709 19.3248 15.5475 19.3398 15.6249 19.3394C15.7022 19.339 15.7787 19.3234 15.85 19.2933C15.9212 19.2632 15.9858 19.2193 16.04 19.1642L19.9463 15.2579C20.0179 15.1864 20.0698 15.0975 20.0968 14.9999C20.1238 14.9024 20.1251 14.7995 20.1006 14.7013L19.3994 11.8985L22.0615 9.2374C22.1885 9.11045 22.2892 8.95972 22.3579 8.79384C22.4266 8.62795 22.462 8.45016 22.462 8.27061C22.462 8.09105 22.4266 7.91326 22.3579 7.74737C22.2892 7.58149 22.1885 7.43077 22.0615 7.30381ZM4.49219 20.3126V17.0401L7.96094 20.5079H4.6875C4.6357 20.5079 4.58602 20.4873 4.5494 20.4507C4.51277 20.4141 4.49219 20.3644 4.49219 20.3126ZM9.375 20.2647L4.73438 15.6251L13.2813 7.0792L17.9219 11.7188L9.375 20.2647ZM21.2324 8.4083L18.75 10.8907L14.1104 6.2501L16.5918 3.76865C16.6099 3.75049 16.6315 3.73609 16.6552 3.72626C16.6789 3.71643 16.7043 3.71137 16.73 3.71137C16.7557 3.71137 16.7811 3.71643 16.8048 3.72626C16.8285 3.73609 16.85 3.75049 16.8682 3.76865L21.2324 8.13193C21.2506 8.15007 21.265 8.17161 21.2748 8.19533C21.2846 8.21904 21.2897 8.24445 21.2897 8.27012C21.2897 8.29578 21.2846 8.3212 21.2748 8.34491C21.265 8.36862 21.2506 8.39016 21.2324 8.4083Z" fill="black"/>
</svg>