<svg xmlns="http://www.w3.org/2000/svg" width="25" height="25" viewBox="0 0 25 25" fill="none">
    <g opacity="0.5">
        <path d="M2.93945 7.30283L7.30371 2.93858C7.43066 2.81161 7.58139 2.71089 7.74727 2.64217C7.91316 2.57345 8.09095 2.53809 8.2705 2.53809C8.45006 2.53809 8.62785 2.57345 8.79374 2.64217C8.95962 2.71089 9.11034 2.81161 9.2373 2.93858L21.2793 14.9815C21.4065 15.1083 21.5074 15.259 21.5761 15.4249C21.6448 15.5909 21.68 15.7687 21.6797 15.9483V20.3126C21.6797 20.6752 21.5356 21.0229 21.2792 21.2793C21.0228 21.5357 20.6751 21.6798 20.3125 21.6798H15.9482C15.7686 21.6801 15.5908 21.6449 15.4248 21.5762C15.2589 21.5075 15.1082 21.4066 14.9814 21.2794L2.93945 9.23643C2.81248 9.10947 2.71176 8.95875 2.64305 8.79286C2.57433 8.62698 2.53896 8.44918 2.53896 8.26963C2.53896 8.09008 2.57433 7.91228 2.64305 7.7464C2.71176 7.58051 2.81248 7.42979 2.93945 7.30283ZM20.2646 15.6251L11.7187 7.07822L9.81347 8.98447L18.3594 17.5304L20.2646 15.6251ZM20.5078 20.3126V17.0392L17.04 20.5079H20.3125C20.3643 20.5079 20.414 20.4873 20.4506 20.4507C20.4872 20.4141 20.5078 20.3644 20.5078 20.3126ZM15.625 20.2647L17.5303 18.3595L8.98437 9.8126L7.0791 11.7188L15.625 20.2647ZM3.76855 8.4083L6.25 10.8897L10.8896 6.2501L8.4082 3.76768C8.39006 3.74952 8.36852 3.73511 8.34481 3.72528C8.3211 3.71545 8.29568 3.71039 8.27002 3.71039C8.24435 3.71039 8.21893 3.71545 8.19522 3.72528C8.17151 3.73511 8.14997 3.74952 8.13183 3.76768L3.76855 8.13193C3.75039 8.15007 3.73599 8.17161 3.72616 8.19533C3.71633 8.21904 3.71127 8.24445 3.71127 8.27012C3.71127 8.29578 3.71633 8.3212 3.72616 8.34491C3.73599 8.36862 3.75039 8.39016 3.76855 8.4083Z" fill="black"/>
    </g>
</svg>