<svg width="19" height="19" viewBox="0 0 19 19" fill="none" xmlns="http://www.w3.org/2000/svg">
<path d="M17.8489 7.68308L11.9114 1.74558C11.7869 1.62093 11.6282 1.53601 11.4554 1.50156C11.2826 1.46712 11.1035 1.48469 10.9407 1.55207C10.7779 1.61944 10.6387 1.73359 10.5408 1.88007C10.4429 2.02654 10.3906 2.19877 10.3906 2.37496V5.10176C8.47875 5.33332 6.40805 6.28109 4.69433 7.73429C2.53012 9.57047 1.1823 11.9418 0.898788 14.414C0.870066 14.6621 0.920292 14.9129 1.04233 15.1308C1.16436 15.3487 1.35198 15.5226 1.57852 15.6277C1.80506 15.7328 2.05898 15.7639 2.30417 15.7164C2.54936 15.6689 2.77334 15.5453 2.94426 15.3632C3.72058 14.5364 6.43254 11.9685 10.3906 11.6211V14.25C10.3908 14.426 10.4431 14.598 10.541 14.7444C10.6388 14.8907 10.7779 15.0047 10.9405 15.0721C11.1032 15.1394 11.2821 15.157 11.4548 15.1227C11.6274 15.0884 11.7861 15.0037 11.9106 14.8793L17.8481 8.94183C18.015 8.77494 18.1088 8.54863 18.109 8.31261C18.1091 8.0766 18.0156 7.85017 17.8489 7.68308ZM12.1719 12.0976V10.6875C12.1719 10.4513 12.078 10.2247 11.911 10.0577C11.744 9.89067 11.5175 9.79683 11.2812 9.79683C7.64453 9.79683 4.85613 11.397 3.13277 12.7737C3.66195 11.4259 4.58969 10.1598 5.84695 9.09324C7.51836 7.67492 9.54973 6.82808 11.2812 6.82808C11.5175 6.82808 11.744 6.73425 11.911 6.56723C12.078 6.4002 12.1719 6.17367 12.1719 5.93746V4.5273L15.957 8.31246L12.1719 12.0976Z" fill="black"/>
</svg>
