<svg xmlns="http://www.w3.org/2000/svg" width="23" height="23" viewBox="0 0 23 23" fill="none">
    <path d="M20.916 9.17578C20.5352 8.77832 20.1416 8.36816 19.9834 7.98633C19.8369 7.63184 19.8291 7.10742 19.8203 6.55273C19.8066 5.63672 19.791 4.59961 19.0957 3.9043C18.4004 3.20898 17.3594 3.19336 16.4473 3.17969C15.8926 3.1709 15.373 3.16309 15.0137 3.0166C14.6318 2.8584 14.2217 2.46484 13.8242 2.08398C13.1758 1.46289 12.4414 0.757812 11.5 0.757812C10.5586 0.757812 9.82422 1.46289 9.17578 2.08398C8.77832 2.46484 8.36816 2.8584 7.98633 3.0166C7.63184 3.16309 7.10742 3.1709 6.55273 3.17969C5.63672 3.19336 4.59961 3.20898 3.9043 3.9043C3.20898 4.59961 3.19336 5.64062 3.17969 6.55273C3.1709 7.10742 3.16309 7.62695 3.0166 7.98633C2.8584 8.36816 2.46484 8.77832 2.08398 9.17578C1.46289 9.82422 0.757812 10.5586 0.757812 11.5C0.757812 12.4414 1.46289 13.1758 2.08398 13.8242C2.46484 14.2217 2.8584 14.6318 3.0166 15.0137C3.16309 15.3682 3.1709 15.8926 3.17969 16.4473C3.19336 17.3633 3.20898 18.4004 3.9043 19.0957C4.59961 19.791 5.64062 19.8066 6.55273 19.8203C7.10742 19.8291 7.62695 19.8369 7.98633 19.9834C8.36816 20.1416 8.77832 20.5352 9.17578 20.916C9.82422 21.5371 10.5586 22.2422 11.5 22.2422C12.4414 22.2422 13.1758 21.5371 13.8242 20.916C14.2217 20.5352 14.6318 20.1416 15.0137 19.9834C15.3682 19.8369 15.8926 19.8291 16.4473 19.8203C17.3633 19.8066 18.4004 19.791 19.0957 19.0957C19.791 18.4004 19.8066 17.3633 19.8203 16.4473C19.8291 15.8926 19.8369 15.373 19.9834 15.0137C20.1416 14.6318 20.5352 14.2217 20.916 13.8242C21.5371 13.1758 22.2422 12.4414 22.2422 11.5C22.2422 10.5586 21.5371 9.82422 20.916 9.17578ZM20.0703 13.0127C19.6143 13.4883 19.1426 13.9805 18.8984 14.5664C18.666 15.127 18.6562 15.7891 18.6465 16.4297C18.6357 17.1562 18.624 17.9082 18.2656 18.2676C17.9072 18.627 17.1543 18.6377 16.4277 18.6484C15.7871 18.6582 15.125 18.668 14.5645 18.9004C13.9785 19.1426 13.4902 19.6143 13.0107 20.0723C12.498 20.5605 11.9678 21.0723 11.498 21.0723C11.0283 21.0723 10.498 20.5635 9.98535 20.0723C9.50977 19.6162 9.01758 19.1445 8.43164 18.9004C7.87109 18.668 7.20898 18.6582 6.56836 18.6484C5.8418 18.6377 5.08984 18.626 4.73047 18.2676C4.37109 17.9092 4.36035 17.1562 4.34961 16.4297C4.33984 15.7891 4.33008 15.127 4.09766 14.5664C3.85547 13.9805 3.38379 13.4922 2.92578 13.0127C2.43848 12.5 1.92969 11.9697 1.92969 11.5C1.92969 11.0303 2.43848 10.5 2.92969 9.98633C3.38574 9.51172 3.85742 9.01953 4.10156 8.43359C4.33398 7.87305 4.34375 7.21094 4.35352 6.57031C4.36426 5.84375 4.37598 5.0918 4.73438 4.73242C5.09277 4.37305 5.8457 4.3623 6.57227 4.35156C7.21289 4.3418 7.875 4.33203 8.43555 4.09961C9.02148 3.85742 9.50977 3.38574 9.98926 2.92773C10.5 2.43848 11.0303 1.92969 11.5 1.92969C11.9697 1.92969 12.5 2.43848 13.0127 2.92969C13.4883 3.38574 13.9805 3.85742 14.5664 4.10156C15.127 4.33398 15.7891 4.34375 16.4297 4.35352C17.1562 4.36426 17.9082 4.37598 18.2676 4.73438C18.627 5.09277 18.6377 5.8457 18.6484 6.57227C18.6582 7.21289 18.668 7.875 18.9004 8.43555C19.1426 9.02148 19.6143 9.50977 20.0723 9.98926C20.5605 10.502 21.0723 11.0322 21.0723 11.502C21.0723 11.9717 20.5615 12.5 20.0703 13.0127Z" fill="black"/>
</svg>