<svg width="19" height="19" viewBox="0 0 19 19" fill="none" xmlns="http://www.w3.org/2000/svg">
<path d="M16.0312 3.5625H2.96875C2.73254 3.5625 2.50601 3.65633 2.33898 3.82336C2.17196 3.99038 2.07812 4.21692 2.07812 4.45312C2.07812 4.68933 2.17196 4.91587 2.33898 5.08289C2.50601 5.24992 2.73254 5.34375 2.96875 5.34375H3.26562V15.4375C3.26562 15.8312 3.42201 16.2087 3.70039 16.4871C3.97876 16.7655 4.35632 16.9219 4.75 16.9219H14.25C14.6437 16.9219 15.0212 16.7655 15.2996 16.4871C15.578 16.2087 15.7344 15.8312 15.7344 15.4375V5.34375H16.0312C16.2675 5.34375 16.494 5.24992 16.661 5.08289C16.828 4.91587 16.9219 4.68933 16.9219 4.45312C16.9219 4.21692 16.828 3.99038 16.661 3.82336C16.494 3.65633 16.2675 3.5625 16.0312 3.5625ZM13.9531 15.1406H5.04688V5.34375H13.9531V15.1406ZM5.64062 1.48438C5.64062 1.24817 5.73446 1.02163 5.90148 0.854608C6.06851 0.687583 6.29504 0.59375 6.53125 0.59375H12.4688C12.705 0.59375 12.9315 0.687583 13.0985 0.854608C13.2655 1.02163 13.3594 1.24817 13.3594 1.48438C13.3594 1.72058 13.2655 1.94712 13.0985 2.11414C12.9315 2.28117 12.705 2.375 12.4688 2.375H6.53125C6.29504 2.375 6.06851 2.28117 5.90148 2.11414C5.73446 1.94712 5.64062 1.72058 5.64062 1.48438Z" fill="black"/>
</svg>
