<svg xmlns="http://www.w3.org/2000/svg" width="15" height="17" viewBox="0 0 15 17" fill="none">
    <path d="M14.0312 3.5625H0.96875C0.732542 3.5625 0.506008 3.65633 0.338983 3.82336C0.171958 3.99038 0.078125 4.21692 0.078125 4.45312C0.078125 4.68933 0.171958 4.91587 0.338983 5.08289C0.506008 5.24992 0.732542 5.34375 0.96875 5.34375H1.26562V15.4375C1.26562 15.8312 1.42201 16.2087 1.70039 16.4871C1.97876 16.7655 2.35632 16.9219 2.75 16.9219H12.25C12.6437 16.9219 13.0212 16.7655 13.2996 16.4871C13.578 16.2087 13.7344 15.8312 13.7344 15.4375V5.34375H14.0312C14.2675 5.34375 14.494 5.24992 14.661 5.08289C14.828 4.91587 14.9219 4.68933 14.9219 4.45312C14.9219 4.21692 14.828 3.99038 14.661 3.82336C14.494 3.65633 14.2675 3.5625 14.0312 3.5625ZM11.9531 15.1406H3.04688V5.34375H11.9531V15.1406ZM3.64062 1.48438C3.64062 1.24817 3.73446 1.02163 3.90148 0.854608C4.06851 0.687583 4.29504 0.59375 4.53125 0.59375H10.4688C10.705 0.59375 10.9315 0.687583 11.0985 0.854608C11.2655 1.02163 11.3594 1.24817 11.3594 1.48438C11.3594 1.72058 11.2655 1.94712 11.0985 2.11414C10.9315 2.28117 10.705 2.375 10.4688 2.375H4.53125C4.29504 2.375 4.06851 2.28117 3.90148 2.11414C3.73446 1.94712 3.64062 1.72058 3.64062 1.48438Z" fill="black"/>
</svg>