<svg xmlns="http://www.w3.org/2000/svg" width="25" height="25" viewBox="0 0 25 25" fill="none">
    <g opacity="0.5">
        <path d="M12.5 2.53906C10.5299 2.53906 8.60407 3.12326 6.966 4.21778C5.32794 5.3123 4.05122 6.86799 3.2973 8.68811C2.54338 10.5082 2.34612 12.5111 2.73046 14.4433C3.11481 16.3755 4.0635 18.1504 5.45656 19.5434C6.84962 20.9365 8.62449 21.8852 10.5567 22.2695C12.489 22.6539 14.4918 22.4566 16.3119 21.7027C18.132 20.9488 19.6877 19.6721 20.7822 18.034C21.8767 16.3959 22.4609 14.4701 22.4609 12.5C22.4578 9.85915 21.4074 7.32735 19.54 5.45998C17.6727 3.59261 15.1409 2.54216 12.5 2.53906ZM6.97657 19.3359C7.5496 18.3831 8.3594 17.5947 9.32726 17.0473C10.2951 16.5 11.3881 16.2123 12.5 16.2123C13.6119 16.2123 14.7049 16.5 15.6728 17.0473C16.6406 17.5947 17.4504 18.3831 18.0234 19.3359C16.4613 20.6027 14.5112 21.294 12.5 21.294C10.4888 21.294 8.53871 20.6027 6.97657 19.3359ZM9.17969 11.7188C9.17969 11.0621 9.37442 10.4201 9.73927 9.87408C10.1041 9.32806 10.6227 8.90249 11.2294 8.65118C11.8361 8.39987 12.5037 8.33412 13.1478 8.46224C13.7918 8.59035 14.3835 8.90658 14.8478 9.37093C15.3122 9.83529 15.6284 10.4269 15.7565 11.071C15.8846 11.7151 15.8189 12.3827 15.5676 12.9894C15.3163 13.5961 14.8907 14.1146 14.3447 14.4795C13.7986 14.8443 13.1567 15.0391 12.5 15.0391C11.6194 15.0391 10.7749 14.6892 10.1522 14.0666C9.52951 13.4439 9.17969 12.5994 9.17969 11.7188ZM18.8975 18.5195C17.9768 17.088 16.6007 16.0085 14.9912 15.4551C15.7938 14.9205 16.403 14.1419 16.7289 13.2343C17.0548 12.3268 17.0799 11.3384 16.8007 10.4154C16.5215 9.49246 15.9526 8.68384 15.1783 8.10912C14.404 7.53441 13.4653 7.22411 12.501 7.22411C11.5367 7.22411 10.598 7.53441 9.82366 8.10912C9.04934 8.68384 8.48051 9.49246 8.20127 10.4154C7.92203 11.3384 7.9472 12.3268 8.27306 13.2343C8.59892 14.1419 9.20818 14.9205 10.0107 15.4551C8.40124 16.0085 7.02513 17.088 6.1045 18.5195C4.92757 17.2706 4.14202 15.7044 3.84477 14.0143C3.54752 12.3241 3.75157 10.5839 4.43175 9.00833C5.11193 7.43278 6.23847 6.09081 7.67239 5.14801C9.10632 4.20521 10.7849 3.70282 12.501 3.70282C14.2171 3.70282 15.8956 4.20521 17.3296 5.14801C18.7635 6.09081 19.89 7.43278 20.5702 9.00833C21.2504 10.5839 21.4544 12.3241 21.1572 14.0143C20.8599 15.7044 20.0744 17.2706 18.8975 18.5195Z" fill="black"/>
    </g>
</svg>