<svg width="13" height="17" viewBox="0 0 13 17" fill="none" xmlns="http://www.w3.org/2000/svg">
<path d="M9.32031 10.2813C9.32031 10.3994 9.2734 10.5126 9.18988 10.5961C9.10637 10.6797 8.9931 10.7266 8.875 10.7266H4.125C4.0069 10.7266 3.89363 10.6797 3.81012 10.5961C3.7266 10.5126 3.67969 10.3994 3.67969 10.2813C3.67969 10.1632 3.7266 10.0499 3.81012 9.96638C3.89363 9.88286 4.0069 9.83595 4.125 9.83595H8.875C8.9931 9.83595 9.10637 9.88286 9.18988 9.96638C9.2734 10.0499 9.32031 10.1632 9.32031 10.2813ZM8.875 7.46095H4.125C4.0069 7.46095 3.89363 7.50787 3.81012 7.59138C3.7266 7.67489 3.67969 7.78816 3.67969 7.90626C3.67969 8.02437 3.7266 8.13763 3.81012 8.22114C3.89363 8.30466 4.0069 8.35157 4.125 8.35157H8.875C8.9931 8.35157 9.10637 8.30466 9.18988 8.22114C9.2734 8.13763 9.32031 8.02437 9.32031 7.90626C9.32031 7.78816 9.2734 7.67489 9.18988 7.59138C9.10637 7.50787 8.9931 7.46095 8.875 7.46095ZM12.8828 2.56251V15.0313C12.8828 15.3068 12.7733 15.5711 12.5785 15.766C12.3836 15.9609 12.1193 16.0703 11.8438 16.0703H1.15625C0.880673 16.0703 0.616384 15.9609 0.421522 15.766C0.22666 15.5711 0.117188 15.3068 0.117188 15.0313V2.56251C0.117188 2.28693 0.22666 2.02264 0.421522 1.82778C0.616384 1.63292 0.880673 1.52345 1.15625 1.52345H3.91496C4.23484 1.15095 4.63145 0.851978 5.07762 0.647015C5.5238 0.442052 6.009 0.335937 6.5 0.335938C6.991 0.335937 7.4762 0.442052 7.92238 0.647015C8.36855 0.851978 8.76516 1.15095 9.08504 1.52345H11.8438C12.1193 1.52345 12.3836 1.63292 12.5785 1.82778C12.7733 2.02264 12.8828 2.28693 12.8828 2.56251ZM3.97656 3.75001V3.89845H9.02344V3.75001C9.02344 3.08075 8.75758 2.43891 8.28434 1.96567C7.8111 1.49243 7.16926 1.22657 6.5 1.22657C5.83074 1.22657 5.1889 1.49243 4.71566 1.96567C4.24242 2.43891 3.97656 3.08075 3.97656 3.75001ZM11.9922 2.56251C11.9922 2.52314 11.9765 2.48539 11.9487 2.45755C11.9209 2.42971 11.8831 2.41407 11.8438 2.41407H9.64168C9.82183 2.8364 9.91448 3.29087 9.91406 3.75001V4.34376C9.91406 4.46187 9.86715 4.57513 9.78363 4.65864C9.70012 4.74216 9.58685 4.78907 9.46875 4.78907H3.53125C3.41315 4.78907 3.29988 4.74216 3.21637 4.65864C3.13285 4.57513 3.08594 4.46187 3.08594 4.34376V3.75001C3.08551 3.29087 3.17817 2.8364 3.35832 2.41407H1.15625C1.11688 2.41407 1.07913 2.42971 1.05129 2.45755C1.02345 2.48539 1.00781 2.52314 1.00781 2.56251V15.0313C1.00781 15.0706 1.02345 15.1084 1.05129 15.1362C1.07913 15.1641 1.11688 15.1797 1.15625 15.1797H11.8438C11.8831 15.1797 11.9209 15.1641 11.9487 15.1362C11.9765 15.1084 11.9922 15.0706 11.9922 15.0313V2.56251Z" fill="black"/>
</svg>
