<svg width="17" height="15" viewBox="0 0 17 15" fill="none" xmlns="http://www.w3.org/2000/svg">
<path d="M0.466564 6.99791L6.40406 1.06041C6.46634 0.99821 6.54565 0.955861 6.63198 0.938711C6.71832 0.921561 6.80779 0.930379 6.88911 0.964051C6.97044 0.997724 7.03996 1.05474 7.08889 1.1279C7.13783 1.20106 7.16399 1.28708 7.16407 1.3751V4.50713C11.2075 4.77357 16.0993 8.58916 16.6589 13.4624C16.677 13.6175 16.6458 13.7745 16.5695 13.9109C16.4933 14.0472 16.376 14.1561 16.2343 14.2219C16.0926 14.2877 15.9337 14.3071 15.7803 14.2773C15.627 14.2475 15.4869 14.1701 15.3801 14.0561C14.5444 13.1647 11.543 10.3259 7.16407 10.1426V13.2501C7.16399 13.3381 7.13783 13.4241 7.08889 13.4973C7.03996 13.5705 6.97044 13.6275 6.88911 13.6611C6.80779 13.6948 6.71832 13.7036 6.63198 13.6865C6.54565 13.6693 6.46634 13.627 6.40406 13.5648L0.466564 7.62728C0.383173 7.54379 0.336332 7.43061 0.336332 7.3126C0.336332 7.19459 0.383173 7.08141 0.466564 6.99791ZM6.27344 12.1754V9.6876C6.27344 9.56949 6.32036 9.45623 6.40387 9.37271C6.48738 9.2892 6.60065 9.24228 6.71875 9.24228C8.77684 9.24228 10.783 9.78037 12.68 10.8417C13.7857 11.4628 14.8042 12.2277 15.7089 13.1165C15.36 11.1453 14.2126 9.25713 12.4432 7.75271C10.6917 6.26908 8.5527 5.38291 6.71875 5.38291C6.60065 5.38291 6.48738 5.33599 6.40387 5.25248C6.32036 5.16897 6.27344 5.0557 6.27344 4.9376V2.45053L1.41137 7.3126L6.27344 12.1754Z" fill="black"/>
</svg>
