<svg xmlns="http://www.w3.org/2000/svg" width="25" height="25" viewBox="0 0 25 25" fill="none">
    <path d="M16.8203 9.74219C16.93 9.85205 16.9917 10.001 16.9917 10.1563C16.9917 10.3115 16.93 10.4604 16.8203 10.5703L11.3516 16.0391C11.2417 16.1488 11.0928 16.2104 10.9375 16.2104C10.7822 16.2104 10.6333 16.1488 10.5234 16.0391L8.17969 13.6953C8.07619 13.5842 8.01985 13.4373 8.02252 13.2855C8.0252 13.1337 8.0867 12.9889 8.19405 12.8815C8.3014 12.7742 8.44624 12.7127 8.59803 12.71C8.74983 12.7073 8.89674 12.7637 9.00782 12.8672L10.9375 14.7959L15.9922 9.74219C16.1021 9.63246 16.251 9.57083 16.4063 9.57083C16.5615 9.57083 16.7105 9.63246 16.8203 9.74219ZM22.4609 12.5C22.4609 14.4701 21.8767 16.3959 20.7822 18.034C19.6877 19.6721 18.132 20.9488 16.3119 21.7027C14.4918 22.4566 12.489 22.6539 10.5567 22.2695C8.62449 21.8852 6.84962 20.9365 5.45656 19.5434C4.0635 18.1504 3.11481 16.3755 2.73046 14.4433C2.34612 12.5111 2.54338 10.5082 3.2973 8.68812C4.05122 6.86799 5.32794 5.3123 6.966 4.21778C8.60407 3.12326 10.5299 2.53906 12.5 2.53906C15.1409 2.54216 17.6727 3.59261 19.54 5.45998C21.4074 7.32735 22.4578 9.85915 22.4609 12.5ZM21.2891 12.5C21.2891 10.7617 20.7736 9.06241 19.8078 7.61706C18.8421 6.17171 17.4694 5.04519 15.8634 4.37997C14.2574 3.71474 12.4903 3.54069 10.7853 3.87982C9.08043 4.21894 7.51437 5.05602 6.2852 6.28519C5.05603 7.51437 4.21895 9.08043 3.87982 10.7853C3.54069 12.4903 3.71475 14.2574 4.37997 15.8634C5.04519 17.4694 6.17171 18.8421 7.61706 19.8078C9.06242 20.7736 10.7617 21.2891 12.5 21.2891C14.8302 21.2865 17.0642 20.3597 18.712 18.712C20.3597 17.0642 21.2865 14.8302 21.2891 12.5Z" fill="white" stroke="white"/>
</svg>