<svg xmlns="http://www.w3.org/2000/svg" width="25" height="25" viewBox="0 0 25 25" fill="none">
    <path d="M20.7266 6.61719L16.8203 2.71094C16.7105 2.60102 16.5616 2.5392 16.4062 2.53906H8.59375C8.23115 2.53906 7.8834 2.68311 7.627 2.9395C7.3706 3.1959 7.22656 3.54365 7.22656 3.90625V5.66406H5.46875C5.10615 5.66406 4.7584 5.80811 4.502 6.0645C4.24561 6.3209 4.10156 6.66865 4.10156 7.03125V21.0938C4.10156 21.4564 4.24561 21.8041 4.502 22.0605C4.7584 22.3169 5.10615 22.4609 5.46875 22.4609H16.4062C16.7689 22.4609 17.1166 22.3169 17.373 22.0605C17.6294 21.8041 17.7734 21.4564 17.7734 21.0938V19.3359H19.5312C19.8939 19.3359 20.2416 19.1919 20.498 18.9355C20.7544 18.6791 20.8984 18.3314 20.8984 17.9688V7.03125C20.8983 6.8759 20.8365 6.72697 20.7266 6.61719ZM16.6016 21.0938C16.6016 21.1455 16.581 21.1952 16.5444 21.2319C16.5077 21.2685 16.458 21.2891 16.4062 21.2891H5.46875C5.41695 21.2891 5.36727 21.2685 5.33064 21.2319C5.29401 21.1952 5.27344 21.1455 5.27344 21.0938V7.03125C5.27344 6.97945 5.29401 6.92977 5.33064 6.89314C5.36727 6.85651 5.41695 6.83594 5.46875 6.83594H13.0381L16.6016 10.3994V21.0938ZM19.7266 17.9688C19.7266 18.0205 19.706 18.0702 19.6694 18.1069C19.6327 18.1435 19.583 18.1641 19.5312 18.1641H17.7734V10.1562C17.7733 10.0009 17.7115 9.85197 17.6016 9.74219L13.6953 5.83594C13.5855 5.72602 13.4366 5.6642 13.2812 5.66406H8.39844V3.90625C8.39844 3.85445 8.41901 3.80477 8.45564 3.76814C8.49227 3.73151 8.54195 3.71094 8.59375 3.71094H16.1631L19.7266 7.27441V17.9688ZM13.8672 14.8438C13.8672 14.9992 13.8055 15.1482 13.6956 15.2581C13.5857 15.368 13.4367 15.4297 13.2812 15.4297H8.59375C8.43835 15.4297 8.28931 15.368 8.17943 15.2581C8.06955 15.1482 8.00781 14.9992 8.00781 14.8438C8.00781 14.6883 8.06955 14.5393 8.17943 14.4294C8.28931 14.3195 8.43835 14.2578 8.59375 14.2578H13.2812C13.4367 14.2578 13.5857 14.3195 13.6956 14.4294C13.8055 14.5393 13.8672 14.6883 13.8672 14.8438ZM13.8672 17.9688C13.8672 18.1242 13.8055 18.2732 13.6956 18.3831C13.5857 18.493 13.4367 18.5547 13.2812 18.5547H8.59375C8.43835 18.5547 8.28931 18.493 8.17943 18.3831C8.06955 18.2732 8.00781 18.1242 8.00781 17.9688C8.00781 17.8133 8.06955 17.6643 8.17943 17.5544C8.28931 17.4445 8.43835 17.3828 8.59375 17.3828H13.2812C13.4367 17.3828 13.5857 17.4445 13.6956 17.5544C13.8055 17.6643 13.8672 17.8133 13.8672 17.9688Z" fill="black"/>
</svg>