<svg xmlns="http://www.w3.org/2000/svg" width="35" height="35" viewBox="0 0 35 35" fill="none">
    <path d="M34.9975 17.5006C34.9975 26.3392 28.4461 33.6463 19.9352 34.832C19.1394 34.9424 18.3252 35 17.4988 35C16.5448 35 15.608 34.924 14.6957 34.7768C6.36386 33.4353 0 26.2105 0 17.5006C0 7.83554 7.83527 0 17.5 0C27.1647 0 35 7.83554 35 17.5006H34.9975Z" fill="url(#paint0_linear_816_532)"/>
    <path d="M7.09715 7.71912L15.1678 18.5099L7.04688 27.2835H8.87511L15.9857 19.6024L21.7304 27.2835H27.9507L19.4264 15.8857L26.9857 7.71912H25.1575L18.6097 14.7932L13.3188 7.71912H7.09836H7.09715ZM9.78492 9.0655H12.6419L25.2605 25.9371H22.4035L9.78492 9.0655Z" fill="white"/>
    <defs>
        <linearGradient id="paint0_linear_816_532" x1="0.0012977" y1="0.00485485" x2="35.0779" y2="35.0905" gradientUnits="userSpaceOnUse">
            <stop/>
            <stop offset="1" stop-color="#252525"/>
        </linearGradient>
    </defs>
</svg>