<svg xmlns="http://www.w3.org/2000/svg" width="25" height="25" viewBox="0 0 25 25" fill="none">
    <path d="M20.7266 8.17969L15.2578 2.71094C15.148 2.60102 14.9991 2.5392 14.8438 2.53906H5.46875C5.10615 2.53906 4.7584 2.68311 4.502 2.9395C4.24561 3.1959 4.10156 3.54365 4.10156 3.90625V21.0938C4.10156 21.4564 4.24561 21.8041 4.502 22.0605C4.7584 22.3169 5.10615 22.4609 5.46875 22.4609H19.5312C19.8939 22.4609 20.2416 22.3169 20.498 22.0605C20.7544 21.8041 20.8984 21.4564 20.8984 21.0938V8.59375C20.8983 8.4384 20.8365 8.28947 20.7266 8.17969ZM15.4297 4.53906L18.8984 8.00781H15.4297V4.53906ZM19.5312 21.2891H5.46875C5.41695 21.2891 5.36727 21.2685 5.33064 21.2319C5.29401 21.1952 5.27344 21.1455 5.27344 21.0938V3.90625C5.27344 3.85445 5.29401 3.80477 5.33064 3.76814C5.36727 3.73151 5.41695 3.71094 5.46875 3.71094H14.2578V8.59375C14.2578 8.74915 14.3195 8.89819 14.4294 9.00807C14.5393 9.11795 14.6883 9.17969 14.8438 9.17969H19.7266V21.0938C19.7266 21.1455 19.706 21.1952 19.6694 21.2319C19.6327 21.2685 19.583 21.2891 19.5312 21.2891ZM14.833 16.3486C15.308 15.6667 15.5104 14.8317 15.4004 14.008C15.2903 13.1843 14.8759 12.4316 14.2386 11.8983C13.6014 11.3649 12.7875 11.0895 11.9573 11.1262C11.1271 11.163 10.3408 11.5093 9.75315 12.0969C9.16554 12.6845 8.81925 13.4709 8.78248 14.3011C8.74572 15.1313 9.02114 15.9451 9.55451 16.5824C10.0879 17.2196 10.8405 17.6341 11.6642 17.7441C12.4879 17.8541 13.323 17.6517 14.0049 17.1768L15.2109 18.3828C15.322 18.4863 15.4689 18.5427 15.6207 18.54C15.7725 18.5373 15.9174 18.4758 16.0247 18.3685C16.1321 18.2611 16.1936 18.1163 16.1962 17.9645C16.1989 17.8127 16.1426 17.6658 16.0391 17.5547L14.833 16.3486ZM9.96094 14.4531C9.96094 14.0282 10.0869 13.6128 10.323 13.2595C10.5591 12.9062 10.8946 12.6308 11.2872 12.4682C11.6798 12.3056 12.1118 12.2631 12.5285 12.346C12.9453 12.4289 13.3281 12.6335 13.6285 12.934C13.929 13.2344 14.1336 13.6172 14.2165 14.034C14.2994 14.4507 14.2569 14.8827 14.0943 15.2753C13.9317 15.6679 13.6563 16.0034 13.303 16.2395C12.9497 16.4756 12.5343 16.6016 12.1094 16.6016C11.5396 16.6016 10.9931 16.3752 10.5902 15.9723C10.1873 15.5694 9.96094 15.0229 9.96094 14.4531Z" fill="black"/>
</svg>