<svg xmlns="http://www.w3.org/2000/svg" width="35" height="35" viewBox="0 0 35 35" fill="none">
    <path d="M17.5 3.55469C14.7419 3.55469 12.0457 4.37257 9.75241 5.9049C7.45911 7.43723 5.67171 9.61519 4.61622 12.1634C3.56073 14.7115 3.28457 17.5155 3.82265 20.2206C4.36073 22.9257 5.68889 25.4105 7.63918 27.3608C9.58947 29.3111 12.0743 30.6393 14.7794 31.1774C17.4845 31.7154 20.2885 31.4393 22.8366 30.3838C25.3848 29.3283 27.5628 27.5409 29.0951 25.2476C30.6274 22.9543 31.4453 20.2581 31.4453 17.5C31.441 13.8028 29.9703 10.2583 27.356 7.64397C24.7417 5.02966 21.1972 3.55903 17.5 3.55469ZM9.76719 27.0703C10.5694 25.7363 11.7032 24.6325 13.0582 23.8662C14.4132 23.1 15.9433 22.6973 17.5 22.6973C19.0567 22.6973 20.5869 23.1 21.9419 23.8662C23.2969 24.6325 24.4306 25.7363 25.2328 27.0703C23.0458 28.8438 20.3157 29.8116 17.5 29.8116C14.6843 29.8116 11.9542 28.8438 9.76719 27.0703ZM12.8516 16.4062C12.8516 15.4869 13.1242 14.5881 13.635 13.8237C14.1457 13.0593 14.8717 12.4635 15.7211 12.1117C16.5705 11.7598 17.5052 11.6678 18.4069 11.8471C19.3086 12.0265 20.1369 12.4692 20.7869 13.1193C21.437 13.7694 21.8798 14.5977 22.0591 15.4994C22.2385 16.4011 22.1464 17.3357 21.7946 18.1851C21.4428 19.0345 20.847 19.7605 20.0825 20.2713C19.3181 20.7821 18.4194 21.0547 17.5 21.0547C16.2672 21.0547 15.0848 20.5649 14.2131 19.6932C13.3413 18.8214 12.8516 17.6391 12.8516 16.4062ZM26.4565 25.9273C25.1676 23.9232 23.241 22.4119 20.9877 21.6371C22.1113 20.8887 22.9643 19.7987 23.4205 18.5281C23.8767 17.2575 23.9119 15.8738 23.521 14.5816C23.13 13.2894 22.3337 12.1574 21.2496 11.3528C20.1656 10.5482 18.8514 10.1138 17.5014 10.1138C16.1514 10.1138 14.8372 10.5482 13.7531 11.3528C12.6691 12.1574 11.8727 13.2894 11.4818 14.5816C11.0908 15.8738 11.1261 17.2575 11.5823 18.5281C12.0385 19.7987 12.8914 20.8887 14.015 21.6371C11.7617 22.4119 9.83518 23.9232 8.5463 25.9273C6.8986 24.1788 5.79883 21.9862 5.38268 19.62C4.96653 17.2537 5.2522 14.8174 6.20445 12.6117C7.1567 10.4059 8.73386 8.52714 10.7414 7.20722C12.7488 5.88729 15.0988 5.18394 17.5014 5.18394C19.9039 5.18394 22.2539 5.88729 24.2614 7.20722C26.2689 8.52714 27.8461 10.4059 28.7983 12.6117C29.7505 14.8174 30.0362 17.2537 29.6201 19.62C29.2039 21.9862 28.1041 24.1788 26.4565 25.9273Z" fill="#009B23"/>
</svg>