<svg width="19" height="19" viewBox="0 0 19 19" fill="none" xmlns="http://www.w3.org/2000/svg">
<path d="M18.0352 7.12877C17.9449 6.85218 17.7754 6.6082 17.5476 6.42716C17.3199 6.24612 17.044 6.136 16.7541 6.11049L12.5237 5.74459L10.8686 1.80061C10.7547 1.5324 10.5645 1.30363 10.3215 1.14281C10.0785 0.981993 9.7936 0.89624 9.50223 0.89624C9.21085 0.89624 8.92593 0.981993 8.68295 1.14281C8.43998 1.30363 8.24971 1.5324 8.13586 1.80061L6.47856 5.74459L2.24809 6.11049C1.9567 6.13462 1.67892 6.24426 1.44961 6.42567C1.2203 6.60708 1.04968 6.85217 0.959147 7.13019C0.868614 7.40821 0.862206 7.70678 0.940726 7.98843C1.01925 8.27007 1.1792 8.52226 1.40051 8.71334L4.61566 11.5188L3.65082 15.6929C3.58465 15.9771 3.60373 16.2745 3.70568 16.548C3.80762 16.8214 3.98791 17.0587 4.224 17.2303C4.46008 17.4018 4.7415 17.5 5.03306 17.5125C5.32463 17.5249 5.6134 17.4512 5.86328 17.3005L9.5 15.0917L13.1367 17.3005C13.3866 17.451 13.6753 17.5245 13.9667 17.5119C14.2581 17.4993 14.5394 17.4011 14.7753 17.2296C15.0113 17.0581 15.1915 16.8209 15.2934 16.5476C15.3953 16.2743 15.4145 15.977 15.3484 15.6929L14.3836 11.5188L17.5988 8.71334C17.8195 8.52156 17.9786 8.26887 18.0563 7.98697C18.1339 7.70507 18.1266 7.40651 18.0352 7.12877ZM13.0811 10.292C12.8775 10.4691 12.7261 10.6983 12.643 10.955C12.56 11.2117 12.5485 11.4861 12.6098 11.7489L13.4551 15.4094L10.2682 13.4737C10.0367 13.3328 9.77097 13.2583 9.5 13.2583C9.22903 13.2583 8.96328 13.3328 8.73184 13.4737L5.54488 15.4094L6.39023 11.7489C6.4515 11.4861 6.43999 11.2117 6.35695 10.955C6.27392 10.6983 6.12249 10.4691 5.91895 10.292L3.09195 7.82569L6.81328 7.50358C7.08276 7.4805 7.34074 7.38395 7.55915 7.22443C7.77756 7.06491 7.94803 6.84853 8.05199 6.59885L9.5 3.14842L10.948 6.59885C11.052 6.84853 11.2224 7.06491 11.4409 7.22443C11.6593 7.38395 11.9172 7.4805 12.1867 7.50358L15.908 7.82569L13.0811 10.292Z" fill="black"/>
</svg>
