<svg xmlns="http://www.w3.org/2000/svg" width="17" height="21" viewBox="0 0 17 21" fill="none">
    <path d="M16.7266 6.17969L11.2578 0.710938C11.148 0.601022 10.9991 0.539199 10.8438 0.539062H1.46875C1.10615 0.539062 0.7584 0.683105 0.502003 0.939503C0.245605 1.1959 0.101563 1.54365 0.101562 1.90625V19.0938C0.101563 19.4564 0.245605 19.8041 0.502003 20.0605C0.7584 20.3169 1.10615 20.4609 1.46875 20.4609H15.5312C15.8939 20.4609 16.2416 20.3169 16.498 20.0605C16.7544 19.8041 16.8984 19.4564 16.8984 19.0938V6.59375C16.8983 6.4384 16.8365 6.28947 16.7266 6.17969ZM11.4297 2.53906L14.8984 6.00781H11.4297V2.53906ZM15.5312 19.2891H1.46875C1.41695 19.2891 1.36727 19.2685 1.33064 19.2319C1.29401 19.1952 1.27344 19.1455 1.27344 19.0938V1.90625C1.27344 1.85445 1.29401 1.80477 1.33064 1.76814C1.36727 1.73151 1.41695 1.71094 1.46875 1.71094H10.2578V6.59375C10.2578 6.74915 10.3195 6.89819 10.4294 7.00807C10.5393 7.11795 10.6883 7.17969 10.8438 7.17969H15.7266V19.0938C15.7266 19.1455 15.706 19.1952 15.6694 19.2319C15.6327 19.2685 15.583 19.2891 15.5312 19.2891ZM12.2109 11.2812C12.2109 11.4367 12.1492 11.5857 12.0393 11.6956C11.9294 11.8055 11.7804 11.8672 11.625 11.8672H5.375C5.2196 11.8672 5.07056 11.8055 4.96068 11.6956C4.8508 11.5857 4.78906 11.4367 4.78906 11.2812C4.78906 11.1258 4.8508 10.9768 4.96068 10.8669C5.07056 10.757 5.2196 10.6953 5.375 10.6953H11.625C11.7804 10.6953 11.9294 10.757 12.0393 10.8669C12.1492 10.9768 12.2109 11.1258 12.2109 11.2812ZM12.2109 14.4062C12.2109 14.5617 12.1492 14.7107 12.0393 14.8206C11.9294 14.9305 11.7804 14.9922 11.625 14.9922H5.375C5.2196 14.9922 5.07056 14.9305 4.96068 14.8206C4.8508 14.7107 4.78906 14.5617 4.78906 14.4062C4.78906 14.2508 4.8508 14.1018 4.96068 13.9919C5.07056 13.882 5.2196 13.8203 5.375 13.8203H11.625C11.7804 13.8203 11.9294 13.882 12.0393 13.9919C12.1492 14.1018 12.2109 14.2508 12.2109 14.4062Z" fill="black"/>
</svg>