<svg width="25" height="25" viewBox="0 0 25 25" fill="none" xmlns="http://www.w3.org/2000/svg">
<path d="M22.8887 20.5078C21.5498 18.1579 19.4591 16.3269 16.9531 15.3096C18.1993 14.3749 19.1198 13.0719 19.5843 11.585C20.0487 10.0982 20.0336 8.50285 19.541 7.02507C19.0484 5.54728 18.1033 4.26195 16.8396 3.35113C15.5759 2.44032 14.0577 1.9502 12.5 1.9502C10.9423 1.9502 9.42403 2.44032 8.16034 3.35113C6.89665 4.26195 5.95158 5.54728 5.45898 7.02507C4.96639 8.50285 4.95125 10.0982 5.41571 11.585C5.88017 13.0719 6.80069 14.3749 8.04686 15.3096C5.54093 16.3269 3.45023 18.1579 2.11132 20.5078C2.02835 20.6412 1.97306 20.7899 1.94872 20.9451C1.92438 21.1003 1.9315 21.2588 1.96964 21.4112C2.00778 21.5636 2.07618 21.7068 2.17076 21.8322C2.26534 21.9577 2.38417 22.0628 2.5202 22.1414C2.65622 22.22 2.80666 22.2704 2.96257 22.2897C3.11847 22.309 3.27667 22.2967 3.42774 22.2537C3.57882 22.2106 3.71969 22.1376 3.84199 22.039C3.96428 21.9404 4.06551 21.8182 4.13964 21.6797C5.90917 18.6211 9.03417 16.7969 12.5 16.7969C15.9658 16.7969 19.0908 18.6221 20.8603 21.6797C21.021 21.938 21.2758 22.1237 21.5709 22.1976C21.866 22.2715 22.1783 22.2277 22.4417 22.0755C22.7051 21.9233 22.899 21.6747 22.9824 21.3821C23.0658 21.0896 23.0322 20.776 22.8887 20.5078ZM7.42186 9.375C7.42186 8.37064 7.71969 7.38884 8.27768 6.55375C8.83567 5.71865 9.62877 5.06778 10.5567 4.68342C11.4846 4.29907 12.5056 4.19851 13.4907 4.39445C14.4757 4.59039 15.3806 5.07403 16.0908 5.78422C16.801 6.49441 17.2846 7.39925 17.4805 8.38431C17.6765 9.36937 17.5759 10.3904 17.1916 11.3183C16.8072 12.2462 16.1563 13.0393 15.3212 13.5973C14.4862 14.1553 13.5043 14.4531 12.5 14.4531C11.1537 14.4516 9.86292 13.9161 8.91093 12.9641C7.95893 12.0121 7.42342 10.7213 7.42186 9.375Z" fill="white" stroke="white"/>
</svg>
